HIERARCHY
ROOT Hips
{
	OFFSET 0.000000 0.000000 0.000000 
	CHANNELS 6 Xposition Yposition Zposition Zrotation Yrotation Xrotation
	JOINT LeftUpLeg
	{
		OFFSET 1.363060 -1.794630 0.839290 
		CHANNELS 3 Zrotation Yrotation Xrotation
		JOINT LeftLeg
		{
			OFFSET 2.448110 -6.726130 0.000000 
			CHANNELS 3 Zrotation Yrotation Xrotation
			JOINT LeftFoot
			{
				OFFSET 2.562200 -7.039590 0.000000 
				CHANNELS 3 Zrotation Yrotation Xrotation
				JOINT LeftToeBase
				{
					OFFSET 0.157640 -0.433110 2.322550 
					CHANNELS 3 Zrotation Yrotation Xrotation
					End Site
					{
						OFFSET 0.000000 0.000000 0.000000 
					}
				}
			}
		}
	}
	JOINT RightUpLeg
	{
		OFFSET -1.305520 -1.794630 0.839290 
		CHANNELS 3 Zrotation Yrotation Xrotation
		JOINT RightLeg
		{
			OFFSET -2.542530 -6.985550 0.000000 
			CHANNELS 3 Zrotation Yrotation Xrotation
			JOINT RightFoot
			{
				OFFSET -2.568260 -7.056230 0.000000 
				CHANNELS 3 Zrotation Yrotation Xrotation
				JOINT RightToeBase
				{
					OFFSET -0.164730 -0.452590 2.363150 
					CHANNELS 3 Zrotation Yrotation Xrotation
					End Site
					{
						OFFSET 0.000000 0.000000 0.000000 
					}
				}
			}
		}
	}
	JOINT Spine
	{
		OFFSET 0.028270 2.035590 -0.193380 
		CHANNELS 3 Zrotation Yrotation Xrotation
		JOINT Spine1
		{
			OFFSET 0.056720 2.048850 -0.042750 
			CHANNELS 3 Zrotation Yrotation Xrotation
			JOINT Neck1
			{
				OFFSET -0.054170 1.746240 0.172020 
				CHANNELS 3 Zrotation Yrotation Xrotation
				JOINT Head
				{
					OFFSET 0.104070 1.761360 -0.123970 
					CHANNELS 3 Zrotation Yrotation Xrotation
					End Site
					{
						OFFSET 0.000000 0.000000 0.000000 
					}
				}
			}
			JOINT LeftArm
			{
				OFFSET 3.362410 1.200890 -0.311210 
				CHANNELS 3 Zrotation Yrotation Xrotation
				JOINT LeftForeArm
				{
					OFFSET 4.983000 -0.000000 -0.000000 
					CHANNELS 3 Zrotation Yrotation Xrotation
					JOINT LeftHand
					{
						OFFSET 3.483560 -0.000000 -0.000000 
						CHANNELS 3 Zrotation Yrotation Xrotation
						JOINT LeftHandIndex1
						{
							OFFSET 0.715260 -0.000000 -0.000000 
							CHANNELS 3 Zrotation Yrotation Xrotation
							End Site
							{
								OFFSET 0.000000 0.000000 0.000000 
							}
						}
					}
				}
			}
			JOINT RightArm
			{
				OFFSET -3.136600 1.374050 -0.404650 
				CHANNELS 3 Zrotation Yrotation Xrotation
				JOINT RightForeArm
				{
					OFFSET -5.241900 -0.000000 -0.000000 
					CHANNELS 3 Zrotation Yrotation Xrotation
					JOINT RightHand
					{
						OFFSET -3.444170 -0.000000 -0.000000 
						CHANNELS 3 Zrotation Yrotation Xrotation
						JOINT RightHandIndex1
						{
							OFFSET -0.622530 -0.000000 -0.000000 
							CHANNELS 3 Zrotation Yrotation Xrotation
							End Site
							{
								OFFSET 0.000000 0.000000 0.000000 
							}
						}
					}
				}
			}
		}
	}
}
MOTION
Frames: 12
Frame Time: 0.041667
-0.288243 16.417721 -2.832023 -3.878937 -1.009232 11.926836 -34.374644 -23.660919 -12.450554 7.526621 6.134241 32.443125 2.810023 0.447967 -26.963764 0.107200 2.111000 5.812500 46.562643 23.888321 -13.550780 -6.993984 -7.172618 36.134467 -3.147482 -6.062490 -28.320004 -1.978800 -8.821800 25.239600 5.686143 -2.462683 -8.552550 -0.359968 -1.630218 -1.276652 7.267824 -16.180196 15.704531 0.576300 -7.621200 7.247300 -89.489760 4.848816 0.370361 27.400950 -31.884412 -4.715689 1.173299 3.805049 14.539211 -7.125000 0.000000 0.000000 85.881672 -0.142207 5.601335 -20.287734 24.488886 -2.797226 -1.843052 0.649131 1.652976 7.125000 0.000000 0.000000 
-0.287073 16.417361 -2.830132 -3.823660 -1.017820 12.059286 -34.411204 -23.687124 -12.575466 7.521695 6.137092 32.440586 2.803471 0.444301 -26.930117 0.104600 2.085100 5.740800 46.467603 23.995956 -13.719449 -7.001292 -7.197703 36.188320 -3.146770 -6.050900 -28.334575 -1.980500 -8.825200 25.250200 5.603713 -2.455693 -8.717022 -0.348331 -1.631475 -1.243154 7.287328 -16.189124 15.729050 0.585300 -7.621900 7.265600 -89.370896 4.916310 0.543186 27.505071 -31.992317 -4.753162 1.160734 3.804581 14.392033 -7.125000 0.000000 0.000000 85.940148 -0.122045 5.368629 -20.180901 24.342243 -2.760410 -1.842284 0.677488 1.835533 7.125000 0.000000 0.000000 
-0.286983 16.418081 -2.827882 -3.899906 -1.099009 12.270729 -34.279269 -23.788366 -12.849541 7.527852 6.163748 32.500732 2.809519 0.431664 -26.992135 0.111600 2.153600 5.930400 46.507328 24.204844 -13.866014 -6.981407 -7.199782 36.148743 -3.132080 -6.136223 -28.249027 -1.941000 -8.742000 24.991600 5.674157 -2.377464 -8.895793 -0.377451 -1.604725 -1.183254 7.264592 -16.206546 15.736031 0.566800 -7.629000 7.266000 -89.263846 4.958874 0.820617 27.578769 -32.058444 -4.778101 1.147928 3.794025 14.233978 -7.125000 0.000000 0.000000 85.932642 -0.057704 5.148390 -20.046687 24.155942 -2.714926 -1.846129 0.678840 1.980104 7.125000 0.000000 0.000000 
-0.285813 16.419161 -2.823741 -3.946333 -1.166338 12.376209 -34.222917 -23.838633 -12.934499 7.528590 6.170769 32.509883 2.824946 0.432163 -27.089190 0.116800 2.203200 6.067600 46.530096 24.312665 -13.924415 -6.971515 -7.198906 36.126221 -3.126925 -6.177076 -28.218217 -1.932700 -8.724500 24.937200 5.708351 -2.334999 -8.888659 -0.402565 -1.585985 -1.085248 7.262181 -16.204241 15.745719 0.554800 -7.623900 7.284500 -89.150705 4.943123 1.103235 27.675599 -32.155221 -4.816105 1.118514 3.824158 14.101399 -7.125000 0.000000 0.000000 85.909147 0.090533 4.954782 -19.920941 23.979720 -2.671393 -1.846232 0.674995 2.203123 7.125000 0.000000 0.000000 
-0.282032 16.419251 -2.819870 -3.992789 -1.148032 12.248124 -34.231650 -23.736849 -12.764764 7.530995 6.159216 32.487951 2.828612 0.422155 -27.104146 0.120000 2.233400 6.151200 46.603859 24.171925 -13.754196 -6.966474 -7.174706 36.079721 -3.122723 -6.221919 -28.173356 -1.890700 -8.634600 24.658700 5.775711 -2.361075 -8.748981 -0.400950 -1.595000 -1.075056 7.270833 -16.180812 15.741178 0.559200 -7.612900 7.297500 -89.139631 4.873683 1.092682 27.739862 -32.238454 -4.843054 1.105393 3.846811 14.086418 -7.125000 0.000000 0.000000 85.832215 0.096759 5.004817 -19.941534 23.994324 -2.674937 -1.841297 0.660683 2.269820 7.125000 0.000000 0.000000 
-0.276361 16.418711 -2.815549 -3.966828 -1.113417 11.985852 -34.369795 -23.605597 -12.384545 7.523953 6.126223 32.412214 2.831493 0.504865 -27.069517 0.120500 2.237700 6.162900 46.617522 23.911630 -13.464139 -6.975297 -7.143711 36.039577 -3.145634 -6.125498 -28.286926 -1.935500 -8.730500 24.955900 5.782508 -2.409805 -8.599910 -0.371053 -1.611035 -1.142735 7.301120 -16.142692 15.732755 0.588900 -7.598200 7.299600 -89.173400 4.898630 1.114887 27.790491 -32.295034 -4.860721 1.120430 3.812746 13.958434 -7.125000 0.000000 0.000000 85.737056 0.014103 5.132999 -19.997771 24.058470 -2.689993 -1.832506 0.642049 2.234520 7.125000 0.000000 0.000000 
-0.269429 16.420601 -2.809608 -3.924269 -1.091259 11.772954 -34.528674 -23.503854 -12.021170 7.508645 6.083613 32.296429 2.838619 0.619476 -27.043252 0.108100 2.120200 5.838000 46.585471 23.689225 -13.241855 -6.990129 -7.127264 36.041146 -3.160852 -6.039452 -28.362410 -1.960800 -8.784000 25.121800 5.793812 -2.471870 -8.435778 -0.336791 -1.632304 -1.192687 7.368472 -16.086380 15.703169 0.647700 -7.575900 7.285400 -89.207688 4.849166 1.121053 27.733795 -32.226931 -4.833259 1.126725 3.781243 13.907223 -7.125000 0.000000 0.000000 85.634452 -0.010885 5.285339 -20.012738 24.075433 -2.693470 -1.826849 0.615844 2.156638 7.125000 0.000000 0.000000 
-0.263488 16.421862 -2.803577 -3.900217 -1.086113 11.714061 -34.613705 -23.481872 -11.831963 7.493759 6.049700 32.190562 2.843343 0.643112 -27.037110 0.108300 2.121900 5.842700 46.545669 23.608081 -13.183682 -7.001854 -7.129303 36.072534 -3.161765 -5.992817 -28.366049 -1.933800 -8.726800 24.944500 5.758662 -2.513746 -8.342982 -0.342459 -1.646575 -1.156866 7.396037 -16.044252 15.708290 0.660500 -7.551600 7.294300 -89.169982 4.769595 1.116791 27.675034 -32.154268 -4.806314 1.124893 3.771898 13.981400 -7.125000 0.000000 0.000000 85.594530 0.015747 5.347829 -19.996605 24.038864 -2.684814 -1.820834 0.601153 2.119617 7.125000 0.000000 0.000000 
-0.257997 16.422582 -2.800336 -3.724076 -1.105004 11.751389 -34.820807 -23.475093 -11.766556 7.477248 6.025488 32.117814 2.835056 0.612401 -26.979869 0.120000 2.233600 6.151600 46.332658 23.636839 -13.297821 -7.016676 -7.146922 36.122605 -3.155875 -5.977562 -28.336616 -1.913000 -8.682400 24.806700 5.550531 -2.535425 -8.378919 -0.317108 -1.650531 -1.106897 7.407503 -16.063988 15.730200 0.653800 -7.554200 7.314500 -89.092251 4.733967 1.099589 27.631600 -32.093960 -4.785630 1.146642 3.748712 14.119303 -7.125000 0.000000 0.000000 85.623080 0.049033 5.263079 -19.941902 23.953156 -2.666222 -1.825621 0.617312 2.191826 7.125000 0.000000 0.000000 
-0.253856 16.422222 -2.801146 -3.667119 -1.122024 11.785129 -34.878714 -23.511584 -11.774580 7.471667 6.019412 32.097847 2.827196 0.573452 -26.940010 0.133400 2.354100 6.485400 46.249047 23.676689 -13.381017 -7.024833 -7.163315 36.166701 -3.155671 -6.002907 -28.347521 -1.884900 -8.622000 24.620000 5.487241 -2.509856 -8.450560 -0.299631 -1.638342 -1.088354 7.429824 -16.111344 15.783323 0.662200 -7.572300 7.375000 -89.085723 4.612597 1.013868 27.538305 -31.980285 -4.742926 1.157095 3.721828 14.321647 -7.125000 0.000000 0.000000 85.626623 0.110598 5.011280 -19.875215 23.863117 -2.643115 -1.825840 0.640736 2.367221 7.125000 0.000000 0.000000 
-0.251155 16.422402 -2.802136 -3.778985 -1.122536 11.823618 -34.749895 -23.555576 -11.865401 7.478133 6.030447 32.126390 2.818101 0.561512 -26.896001 0.137000 2.385600 6.572700 46.346817 23.774240 -13.400789 -7.023421 -7.176775 36.204287 -3.156796 -6.071192 -28.370705 -1.898700 -8.651900 24.712300 5.620868 -2.484507 -8.495049 -0.321440 -1.634897 -1.070074 7.423368 -16.112039 15.827998 0.651600 -7.568100 7.426700 -89.091052 4.501722 0.959807 27.446919 -31.856664 -4.697473 1.145250 3.695801 14.416116 -7.125000 0.000000 0.000000 85.553143 0.149126 5.033990 -19.860075 23.826243 -2.636527 -1.828837 0.638060 2.256532 7.125000 0.000000 0.000000 
-0.249175 16.422942 -2.799886 -3.785579 -1.231008 11.913567 -34.755075 -23.540569 -11.976557 7.481305 6.044543 32.167930 2.819217 0.617065 -26.899035 0.132800 2.348500 6.469800 46.308425 23.931865 -13.482835 -7.023495 -7.188637 36.230095 -3.142980 -6.083665 -28.292829 -1.876800 -8.604600 24.566100 5.750659 -2.459306 -8.529049 -0.293112 -1.633367 -0.993938 7.393831 -16.071581 15.883219 0.623800 -7.542300 7.483500 -89.132547 4.485166 0.894642 27.491821 -31.900061 -4.711971 1.128382 3.693069 14.425742 -7.125000 0.000000 0.000000 85.494542 0.258391 4.926651 -19.803957 23.738675 -2.616416 -1.831352 0.646218 2.382507 7.125000 0.000000 0.000000 
